<svg width="18" height="21" viewBox="0 0 18 21" fill="none" xmlns="http://www.w3.org/2000/svg">
<path d="M2.74951 0.5C1.50687 0.5 0.499512 1.50736 0.499512 2.75V18.25C0.499512 19.4926 1.50687 20.5 2.74951 20.5H10.25C11.4855 20.5 12.4885 19.5041 12.4999 18.2712L12.5002 18.2501V16.7501C12.5002 16.3359 12.1644 16.0001 11.7502 16.0001C11.2963 16.0001 11.0108 15.878 10.8133 15.7193C10.6053 15.552 10.4338 15.294 10.3023 14.9301C10.0297 14.1751 10.0002 13.1796 10.0002 12.25C10.0001 12.0601 9.928 11.8772 9.7984 11.7384C9.7222 11.6566 9.6709 11.6012 9.634 11.5614C9.5436 11.4637 9.5394 11.4591 9.4635 11.3877C9.3896 11.3182 9.1639 11.1027 8.2805 10.2197C7.812 9.7514 7.5522 9.3551 7.4672 9.0524C7.4283 8.9137 7.4303 8.8102 7.4517 8.7269C7.4729 8.6443 7.5248 8.5358 7.6563 8.40425C7.7877 8.27277 7.896 8.22105 7.9781 8.20003C8.0609 8.17883 8.164 8.17686 8.3024 8.2159C8.6049 8.30123 9.0009 8.5615 9.4696 9.0305C10.0092 9.5704 10.522 10.0775 10.9813 10.5318C11.7408 11.2828 12.3549 11.8901 12.7019 12.2619C12.9845 12.5647 13.4591 12.581 13.7619 12.2984C14.0647 12.0158 14.0811 11.5412 13.7985 11.2384C13.514 10.9335 13.0566 10.4759 12.4997 9.924V6.56031L15.341 9.4017C15.7629 9.8236 16 10.3959 16 10.9926V19.75C16 20.1642 16.3358 20.5 16.75 20.5C17.1642 20.5 17.5 20.1642 17.5 19.75V10.9926C17.5 9.9981 17.1049 9.0443 16.4017 8.34099L12.4996 4.43894V2.74994C12.4995 1.50732 11.4922 0.5 10.2496 0.5H2.74951ZM8.8915 15.4396C8.9884 15.7077 9.1132 15.9738 9.2753 16.2218C8.5208 16.585 8.0002 17.3568 8.0002 18.2502V19H5.00016V18.2502C5.00016 17.0075 3.9928 16.0002 2.75016 16.0002H1.99951V4.99967H2.75016C3.9928 4.99967 5.00016 3.99231 5.00016 2.74967V2H8.0002V2.74967C8.0002 3.99231 9.0075 4.99967 10.2502 4.99967H10.9996L10.9997 8.4381C10.8452 8.2844 10.6885 8.12819 10.5306 7.97019C9.9996 7.43877 9.3823 6.96195 8.7096 6.77222C8.3603 6.67373 7.9853 6.64976 7.6059 6.74692C7.38 6.80478 7.169 6.90139 6.9735 7.03167C6.8186 7.01073 6.6606 6.99991 6.49996 6.99991C4.56697 6.99991 2.99996 8.5669 2.99996 10.4999C2.99996 12.4329 4.56697 13.9999 6.49996 13.9999C7.2541 13.9999 7.9524 13.7614 8.5238 13.3558C8.5607 14.04 8.6544 14.7829 8.8915 15.4396ZM4.49996 10.4999C4.49996 9.5842 5.11543 8.8121 5.95528 8.575C5.9134 8.8784 5.94404 9.1764 6.02305 9.4578C6.2121 10.1312 6.6883 10.7491 7.2201 11.2806C7.5018 11.5622 7.7181 11.7773 7.8851 11.9427C7.5257 12.2878 7.0376 12.4999 6.49996 12.4999C5.39539 12.4999 4.49996 11.6045 4.49996 10.4999ZM1.99951 2.75C1.99951 2.33579 2.3353 2 2.74951 2H3.50016V2.74967C3.50016 3.16389 3.16438 3.49967 2.75016 3.49967H1.99951V2.75ZM9.5002 2H10.2496C10.6638 2 10.9995 2.33577 10.9996 2.74998V3.49967H10.2502C9.836 3.49967 9.5002 3.16389 9.5002 2.74967V2ZM10.9999 17.5002L11 18.25C11 18.6642 10.6642 19 10.25 19H9.5002V18.2502C9.5002 17.8359 9.836 17.5002 10.2502 17.5002H10.9999ZM3.50016 19H2.74951C2.3353 19 1.99951 18.6642 1.99951 18.25V17.5002H2.75016C3.16438 17.5002 3.50016 17.8359 3.50016 18.2502V19Z" fill="white"/>
</svg>
