<svg width="19" height="20" viewBox="0 0 19 20" fill="none" xmlns="http://www.w3.org/2000/svg">
<path d="M13.2536 0C14.4119 0 15.3657 0.87524 15.4899 2.00044L16.7576 2C17.6758 2 18.4288 2.70711 18.5018 3.60647L18.5076 3.75V6.75C18.5076 8.483 17.1512 9.8992 15.4421 9.9949L15.2318 10.0007C14.564 12.0909 12.7334 13.6615 10.5007 13.9517L10.5001 15.5H12.2536C13.9866 15.5 15.4028 16.8565 15.4984 18.5656L15.5036 18.75V19.25C15.5036 19.6297 15.2214 19.9435 14.8554 19.9932L14.7536 20H4.75056C4.37086 20 4.05707 19.7178 4.00741 19.3518L4.00056 19.25V18.75C4.00056 17.017 5.35702 15.6008 7.06614 15.5051L7.25056 15.5H9.0001L9.0004 13.9513C6.76915 13.6601 4.93987 12.09 4.27235 10.0007L4.24609 10C2.45117 10 0.996094 8.5449 0.996094 6.75V3.75C0.996094 2.7835 1.7796 2 2.74609 2L4.01424 2.00044C4.13841 0.87524 5.09227 0 6.25056 0H13.2536ZM12.2536 17H7.25056C6.4208 17 5.72592 17.5775 5.54591 18.3525L5.51828 18.5H13.9859C13.8717 17.7018 13.2189 17.0774 12.4075 17.0067L12.2536 17ZM13.2536 1.5H6.25056C5.83635 1.5 5.50056 1.83579 5.50056 2.25V8.2485C5.50056 10.5965 7.40403 12.5 9.7521 12.5C12.1001 12.5 14.0036 10.5965 14.0036 8.2485V2.25C14.0036 1.83579 13.6678 1.5 13.2536 1.5ZM16.7576 3.5H15.5036V8.4829C16.3036 8.3703 16.93 7.71683 17.0009 6.90415L17.0076 6.75V3.75C17.0076 3.63165 16.9254 3.53251 16.815 3.5066L16.7576 3.5ZM4.00056 3.5H2.74609C2.60802 3.5 2.49609 3.61193 2.49609 3.75V6.75C2.49609 7.63317 3.15031 8.3635 4.00056 8.4829V3.5Z" fill="#0066F5"/>
</svg>
