<svg width="19" height="18" viewBox="0 0 19 18" fill="none" xmlns="http://www.w3.org/2000/svg">
<path d="M10 1.75281C10 0.786308 9.2165 0.00280762 8.25 0.00280762H1.75C0.7835 0.00280762 0 0.786308 0 1.75281V6.25281C0 7.2193 0.7835 8.0028 1.75 8.0028H8.25C9.2165 8.0028 10 7.2193 10 6.25281V1.75281ZM5.98759 11.7346C5.98759 10.7681 5.20408 9.9846 4.23759 9.9846H1.75C0.7835 9.9846 0 10.7681 0 11.7346V16.249C0 17.2155 0.7835 17.999 1.75 17.999H4.23759C5.20408 17.999 5.98759 17.2155 5.98759 16.249V11.7346ZM8.5 1.75281V6.25281C8.5 6.39088 8.3881 6.50281 8.25 6.50281H1.75C1.61193 6.50281 1.5 6.39088 1.5 6.25281V1.75281C1.5 1.61474 1.61193 1.50281 1.75 1.50281H8.25C8.3881 1.50281 8.5 1.61474 8.5 1.75281ZM4.48759 11.7346V16.249C4.48759 16.3871 4.37566 16.499 4.23759 16.499H1.75C1.61193 16.499 1.5 16.3871 1.5 16.249V11.7346C1.5 11.5965 1.61193 11.4846 1.75 11.4846H4.23759C4.37566 11.4846 4.48759 11.5965 4.48759 11.7346ZM18.0017 11.749C18.0017 10.7825 17.2182 9.999 16.2517 9.999H9.7517C8.8335 9.999 8.0805 10.7061 8.0075 11.6055L8.0017 11.749V16.249C8.0017 17.2155 8.7852 17.999 9.7517 17.999H16.2517C17.2182 17.999 18.0017 17.2155 18.0017 16.249V11.749ZM16.5017 11.749V16.249C16.5017 16.3871 16.3898 16.499 16.2517 16.499H9.7517C9.6136 16.499 9.5017 16.3871 9.5017 16.249V11.749L9.5083 11.6917C9.5342 11.5813 9.6333 11.499 9.7517 11.499H16.2517C16.3898 11.499 16.5017 11.6109 16.5017 11.749ZM18.0017 1.75281C18.0017 0.786308 17.2182 0.00280762 16.2517 0.00280762H13.7517C12.7852 0.00280762 12.0017 0.786308 12.0017 1.75281V6.25281C12.0017 7.2193 12.7852 8.0028 13.7517 8.0028H16.2517C17.2182 8.0028 18.0017 7.2193 18.0017 6.25281V1.75281ZM16.5017 6.25281C16.5017 6.39088 16.3898 6.50281 16.2517 6.50281H13.7517C13.6136 6.50281 13.5017 6.39088 13.5017 6.25281V1.75281C13.5017 1.61474 13.6136 1.50281 13.7517 1.50281H16.2517C16.3898 1.50281 16.5017 1.61474 16.5017 1.75281V6.25281Z" fill="white"/>
</svg>
