<svg width="26" height="30" viewBox="0 0 26 30" fill="none" xmlns="http://www.w3.org/2000/svg">
<g filter="url(#filter0_d_656_757)">
<path d="M11.5495 2.53189C12.3874 1.82531 13.6126 1.82531 14.4505 2.5319L21.2005 8.224C21.7074 8.65152 22 9.2809 22 9.94406V19.7468C22 20.7133 21.2165 21.4968 20.25 21.4968H16.75C15.7835 21.4968 15 20.7133 15 19.7468V14.2468C15 14.1088 14.8881 13.9968 14.75 13.9968H11.25C11.1119 13.9968 11 14.1088 11 14.2468V19.7468C11 20.7133 10.2165 21.4968 9.25 21.4968H5.75C4.7835 21.4968 4 20.7133 4 19.7468V9.94406C4 9.2809 4.29255 8.65152 4.79952 8.224L11.5495 2.53189ZM13.4835 3.6786C13.2042 3.44307 12.7958 3.44307 12.5165 3.6786L5.76651 9.37071C5.59752 9.51321 5.5 9.72301 5.5 9.94406V19.7468C5.5 19.8849 5.61193 19.9968 5.75 19.9968H9.25C9.38807 19.9968 9.49999 19.8849 9.49999 19.7468V14.2468C9.49999 13.2803 10.2835 12.4968 11.25 12.4968H14.75C15.7165 12.4968 16.5 13.2803 16.5 14.2468V19.7468C16.5 19.8849 16.6119 19.9968 16.75 19.9968H20.25C20.3881 19.9968 20.5 19.8849 20.5 19.7468V9.94406C20.5 9.72301 20.4025 9.51321 20.2335 9.37071L13.4835 3.6786Z" fill="#0066F5"/>
</g>
<defs>
<filter id="filter0_d_656_757" x="-3" y="0" width="32" height="32" filterUnits="userSpaceOnUse" color-interpolation-filters="sRGB">
<feFlood flood-opacity="0" result="BackgroundImageFix"/>
<feColorMatrix in="SourceAlpha" type="matrix" values="0 0 0 0 0 0 0 0 0 0 0 0 0 0 0 0 0 0 127 0" result="hardAlpha"/>
<feOffset dy="4"/>
<feGaussianBlur stdDeviation="2"/>
<feComposite in2="hardAlpha" operator="out"/>
<feColorMatrix type="matrix" values="0 0 0 0 0 0 0 0 0 0 0 0 0 0 0 0 0 0 0.25 0"/>
<feBlend mode="normal" in2="BackgroundImageFix" result="effect1_dropShadow_656_757"/>
<feBlend mode="normal" in="SourceGraphic" in2="effect1_dropShadow_656_757" result="shape"/>
</filter>
</defs>
</svg>
