<svg width="32" height="30" viewBox="0 0 32 30" fill="none" xmlns="http://www.w3.org/2000/svg">
<path d="M15.9718 2.5C20.9135 2.5 24.9195 6.41751 24.9195 11.25C24.9195 13.6337 23.9447 15.7949 22.3638 17.3729L22.362 26.5627C22.362 27.2776 21.5866 27.7132 20.9659 27.3975L20.8515 27.3294L15.9706 23.9696L11.0923 27.3293C10.4945 27.7409 9.68375 27.3716 9.59044 26.6934L9.58157 26.5627L9.57974 17.3729C7.99879 15.7949 7.02405 13.6337 7.02405 11.25C7.02405 6.41751 11.0301 2.5 15.9718 2.5ZM20.4446 24.7564L20.4449 18.8299C19.1289 19.574 17.6013 20 15.9718 20C14.3423 20 12.8146 19.574 11.4987 18.8299L11.4989 24.7559L15.4184 22.0566C15.7081 21.8571 16.0825 21.8321 16.3934 21.9816L16.5222 22.0565L20.4446 24.7564L20.4449 18.8299L20.4446 24.7564ZM15.9718 4.375C12.089 4.375 8.94142 7.45304 8.94142 11.25C8.94142 15.047 12.089 18.125 15.9718 18.125C19.8546 18.125 23.0022 15.047 23.0022 11.25C23.0022 7.45304 19.8546 4.375 15.9718 4.375Z" fill="#0066F5"/>
</svg>
