<svg width="55" height="55" viewBox="0 0 55 55" fill="none" xmlns="http://www.w3.org/2000/svg">
<rect width="55" height="55" rx="10" fill="#FFB200"/>
<path d="M34.5146 15.7968C34.6784 15.3057 34.413 14.7747 33.9219 14.6109C33.4306 14.4471 32.8998 14.7125 32.7359 15.2037L31.7984 18.0149C31.6346 18.5061 31.9 19.037 32.3911 19.2008C32.8824 19.3646 33.4133 19.0992 33.5771 18.6081L34.5146 15.7968ZM40.2254 15.7749C40.5915 16.141 40.5915 16.7346 40.2254 17.1007L37.1004 20.2257C36.7343 20.5918 36.1408 20.5918 35.7746 20.2257C35.4085 19.8596 35.4085 19.266 35.7746 18.8999L38.8996 15.7749C39.2658 15.4087 39.8593 15.4087 40.2254 15.7749ZM24.3454 18.398C25.2326 16.5565 27.6934 16.1821 29.0883 17.6764L37.8461 27.0589C39.2099 28.5199 38.7261 30.8896 36.8988 31.6993L32.6239 33.5933C32.8665 34.1809 33.0004 34.825 33.0004 35.5003C33.0004 38.2618 30.7619 40.5003 28.0004 40.5003C26.006 40.5003 24.2844 39.3326 23.4818 37.6436L21.71 38.4286C20.8816 38.7956 19.914 38.63 19.2548 38.0084L17.4564 36.3124C16.743 35.6395 16.5474 34.5821 16.9731 33.6988L24.3454 18.398ZM25.1974 36.8835C25.7078 37.9155 26.7711 38.6253 28.0004 38.6253C29.7264 38.6253 31.1254 37.2261 31.1254 35.5003C31.1254 35.0954 31.0484 34.7084 30.9083 34.3533L25.1974 36.8835ZM27.7175 18.9558C27.2226 18.4255 26.3494 18.5584 26.0345 19.2118L18.6623 34.5126C18.5913 34.6599 18.6239 34.8361 18.7428 34.9483L20.5412 36.6443C20.6511 36.7479 20.8124 36.7755 20.9505 36.7143L36.1393 29.9849C36.7878 29.6976 36.9594 28.8568 36.4754 28.3383L27.7175 18.9558ZM36.75 23.3119C36.75 22.7941 37.1698 22.3744 37.6875 22.3744H40.1875C40.7053 22.3744 41.125 22.7941 41.125 23.3119C41.125 23.8296 40.7053 24.2494 40.1875 24.2494H37.6875C37.1698 24.2494 36.75 23.8296 36.75 23.3119Z" fill="white"/>
</svg>
