<svg width="55" height="55" viewBox="0 0 55 55" fill="none" xmlns="http://www.w3.org/2000/svg">
<rect width="55" height="55" rx="10" fill="#0066F5"/>
<path d="M30.1861 19.875L39.6284 19.8757L39.7537 19.8931L39.8773 19.9276L39.9526 19.9595C40.0516 20.0031 40.1444 20.0664 40.226 20.1479L40.2769 20.203L40.3312 20.2735L40.399 20.3861L40.4474 20.499L40.4712 20.5791L40.4883 20.6591L40.5 20.7769L40.5005 30.1924C40.5005 30.7101 40.0809 31.1299 39.563 31.1299C39.0885 31.1299 38.6962 30.7771 38.6341 30.3196L38.6255 30.1924L38.625 23.0738L28.9765 32.7241C28.6436 33.0569 28.1227 33.0872 27.7557 32.8149L27.6506 32.7241L23.9375 29.0111L17.1004 35.8483C16.7343 36.2144 16.1407 36.2144 15.7746 35.8483C15.4418 35.5154 15.4115 34.9946 15.6838 34.6276L15.7746 34.5224L23.2746 27.0224C23.6074 26.6896 24.1282 26.6594 24.4953 26.9316L24.6004 27.0224L28.3135 30.7354L37.2975 21.75H30.1861C29.7115 21.75 29.3193 21.3973 29.2572 20.9397L29.2486 20.8125C29.2486 20.3379 29.6014 19.9456 30.059 19.8836L30.1861 19.875Z" fill="white"/>
</svg>
